<?xml version="1.0" encoding="utf-8"?>
<svg width="61" height="61" viewBox="0 0 61 61" fill="none" xmlns="http://www.w3.org/2000/svg">
  <g>
    <path d="M24.4 0C21.0308 0 18.3 2.73077 18.3 6.1C18.3 9.46923 21.0308 12.2 24.4 12.2C27.7692 12.2 30.5 9.46923 30.5 6.1C30.5 2.73077 27.7692 0 24.4 0C24.4 0 24.4 0 24.4 0ZM22.3684 15.9887C21.0427 16.1757 19.7329 16.5277 18.4844 17.0808C18.4844 17.0808 1.769 24.5072 1.769 24.5072C-0.589667 25.5564 -0.589667 28.9028 1.769 29.952C1.769 29.952 18.4844 37.3784 18.4844 37.3784C22.2522 39.0518 26.5513 39.0518 30.3191 37.3784C30.3191 37.3784 47.0345 29.952 47.0345 29.952C49.3932 28.9028 49.3932 25.5564 47.0345 24.5072C47.0345 24.5072 30.3191 17.0808 30.3191 17.0808C29.0706 16.5257 27.7629 16.1757 26.4351 15.9887C26.4351 15.9887 26.4351 26.9417 26.4351 26.9417C26.4351 27.7835 25.5242 28.4667 24.4018 28.4667C23.2794 28.4667 22.3684 27.7835 22.3684 26.9417C22.3684 26.9417 22.3684 15.9887 22.3684 15.9887C22.3684 15.9887 22.3684 15.9887 22.3684 15.9887ZM9.60274 25.2141C11.5263 25.2141 13.0856 26.1058 13.0856 27.2038C13.0856 28.3018 11.5283 29.1894 9.60274 29.1894C7.6792 29.1894 6.11986 28.3018 6.11986 27.2038C6.11986 26.1058 7.6792 25.2141 9.60274 25.2141C9.60274 25.2141 9.60274 25.2141 9.60274 25.2141ZM0.806185 32.8273C0.380138 32.8677 0.0158854 33.2243 0.0158854 33.697C0.0158854 33.697 0.0158854 35.3848 0.0158854 35.3848C0.0219855 36.4767 0.597991 37.5648 1.77122 38.0854C1.77122 38.0854 18.4867 45.5118 18.4867 45.5118C22.2544 47.1852 26.5495 47.1852 30.3173 45.5118C30.3173 45.5118 47.0327 38.0854 47.0327 38.0854C48.206 37.5648 48.782 36.4767 48.7881 35.3848C48.7881 35.3848 48.7881 33.697 48.7881 33.697C48.7881 33.0667 48.1364 32.6465 47.5609 32.9027C47.5609 32.9027 30.3173 40.5595 30.3173 40.5595C26.5495 42.2329 22.2505 42.2329 18.4827 40.5595C18.4827 40.5595 1.24303 32.9027 1.24303 32.9027C1.09867 32.8387 0.948201 32.8138 0.806185 32.8273C0.806185 32.8273 0.806185 32.8273 0.806185 32.8273Z" fill="#000000" transform="translate(6.1 6.1)" />
  </g>
</svg>