<?xml version="1.0" encoding="utf-8"?>
<svg width="66" height="66" viewBox="0 0 66 66" fill="none" xmlns="http://www.w3.org/2000/svg">
  <g>
    <path d="M45.4272 3.43079C39.3319 7.99985 32.8122 16.8722 29.7461 22.4966C29.4218 23.0914 28.5755 23.0914 28.2513 22.4966C25.1852 16.8722 18.6655 7.99985 12.5702 3.43079C7.77464 -0.164455 0 -2.94643 0 5.90745C0 7.67612 1.015 20.7595 1.61082 22.8862C3.20845 28.5949 8.08045 31.0162 13.3084 31.2952C13.8093 31.3216 13.8936 31.9822 13.4217 32.148C5.54427 34.9063 4.147 40.5597 9.66755 46.2131C19.7543 56.4619 24.9954 47.916 27.4182 42.2284C28.0087 40.8466 29.9939 40.8466 30.5818 42.2284C33.0073 47.916 38.2457 56.4619 48.3325 46.2131C53.8504 40.5597 52.4557 34.9063 44.5783 32.148C44.1064 31.9822 44.1934 31.3242 44.6916 31.2952C49.9195 31.0163 54.7889 28.5949 56.3892 22.8862C56.985 20.7622 58 7.67612 58 5.90745C58 -2.94643 50.2254 -0.164455 45.4272 3.43079C45.4272 3.43079 45.4272 3.43079 45.4272 3.43079Z" fill="#000000" fill-rule="evenodd" transform="translate(4 8)" />
  </g>
</svg>