<?xml version="1.0" encoding="utf-8"?>
<svg width="66" height="66" viewBox="0 0 66 66" fill="none" xmlns="http://www.w3.org/2000/svg">
  <g>
    <path d="M52.305 4.97712C47.0508 0.748991 38.7389 0.0322742 38.3831 0.00649166C37.8314 -0.0399141 37.3055 0.269461 37.0786 0.77993C37.058 0.810866 36.8775 1.22852 36.6764 1.87821C40.1517 2.46602 44.4211 3.6468 48.2831 6.04446C48.9019 6.42602 49.0927 7.24071 48.7111 7.85946C48.4584 8.2668 48.0305 8.48852 47.587 8.48852C47.3498 8.48852 47.1075 8.42149 46.8909 8.28743C40.2497 4.16759 31.9584 3.96134 30.36 3.96134C28.7616 3.96134 20.4652 4.16759 13.8291 8.28743C13.2103 8.67415 12.3956 8.48337 12.0141 7.86462C11.6273 7.24071 11.8181 6.43118 12.4369 6.04446C16.2989 3.65196 20.5683 2.46602 24.0436 1.88337C23.8425 1.22852 23.662 0.816024 23.6466 0.77993C23.4145 0.269461 22.8937 -0.0502262 22.3369 0.00649166C21.9811 0.0322742 13.6692 0.748991 8.34281 5.03384C5.56359 7.6068 0 22.6424 0 35.6413C0 35.8734 0.0618751 36.0951 0.175313 36.2962C4.01156 43.0406 14.4839 44.804 16.8713 44.8813C16.8816 44.8813 16.897 44.8813 16.9125 44.8813C17.3353 44.8813 17.7323 44.6802 17.9798 44.3399C17.9798 44.3399 20.393 41.0193 20.393 41.0193C13.8806 39.3384 10.5548 36.4818 10.3641 36.3116C9.8175 35.8321 9.76594 34.9968 10.2506 34.4502C10.7302 33.9037 11.5655 33.8521 12.112 34.3316C12.1894 34.4038 18.315 39.6013 30.36 39.6013C42.4256 39.6013 48.5513 34.3832 48.6131 34.3316C49.1597 33.8573 49.9898 33.9037 50.4745 34.4554C50.9541 35.002 50.9025 35.8321 50.3559 36.3116C50.1652 36.4818 46.8394 39.3384 40.327 41.0193C40.327 41.0193 42.7402 44.3399 42.7402 44.3399C42.9877 44.6802 43.3847 44.8813 43.8075 44.8813C43.823 44.8813 43.8384 44.8813 43.8487 44.8813C46.2361 44.804 56.7084 43.0406 60.5447 36.2962C60.6581 36.0951 60.72 35.8734 60.72 35.6413C60.72 22.6424 55.1564 7.6068 52.305 4.97712ZM21.78 30.3614C19.2277 30.3614 17.16 27.9998 17.16 25.0814C17.16 22.1629 19.2277 19.8014 21.78 19.8014C24.3323 19.8014 26.4 22.1629 26.4 25.0814C26.4 27.9998 24.3323 30.3614 21.78 30.3614ZM38.94 30.3614C36.3877 30.3614 34.32 27.9998 34.32 25.0814C34.32 22.1629 36.3877 19.8014 38.94 19.8014C41.4923 19.8014 43.56 22.1629 43.56 25.0814C43.56 27.9998 41.4923 30.3614 38.94 30.3614Z" fill="#000000" transform="translate(2.64 9.239)" />
  </g>
</svg>