<?xml version="1.0" encoding="utf-8"?>
<svg  viewBox="0 0 60 60" version="1.1" xmlns:xlink="http://www.w3.org/1999/xlink" xmlns="http://www.w3.org/2000/svg">
  <g id="filled_gear">
    <path d="M58.9069 25.0709L51.1975 23.8109C50.7462 22.2639 50.1291 20.777 49.3569 19.3696L53.8573 12.9561C54.2212 12.4383 54.1586 11.7326 53.7112 11.2839L48.6381 6.21391C48.1855 5.76261 47.4733 5.70391 46.9541 6.07826L40.6366 10.6187C39.216 9.83348 37.7159 9.21 36.1597 8.75739L34.8148 1.08C34.7052 0.456522 34.1638 0 33.5299 0L26.3553 0C25.7161 0 25.1709 0.463044 25.0678 1.09435L23.8208 8.73C22.2554 9.18 20.7527 9.79696 19.3373 10.5717L13.0368 6.07174C12.5163 5.7 11.808 5.76 11.3553 6.21L6.28489 11.28C5.83746 11.7274 5.77485 12.4317 6.13879 12.9496L10.5727 19.2926C9.78346 20.7209 9.15471 22.2326 8.69684 23.8057L1.09053 25.0722C0.461779 25.1765 0 25.7217 0 26.3583L0 33.5322C0 34.1648 0.453953 34.7061 1.07618 34.817L8.68249 36.1657C9.13775 37.7348 9.7665 39.2465 10.5583 40.6787L6.06966 46.9565C5.69919 47.4743 5.75789 48.1852 6.20793 48.6378L11.2797 53.713C11.7271 54.1604 12.4328 54.223 12.9507 53.8591L19.3034 49.41C20.7292 50.1939 22.2358 50.8161 23.7973 51.2674L25.0704 58.9122C25.1735 59.5396 25.7174 60 26.3553 60L33.5299 60C34.1625 60 34.7039 59.5461 34.8135 58.9239L36.1766 51.2413C37.7407 50.7809 39.2395 50.1548 40.6509 49.3696L47.0493 53.8578C47.5685 54.2243 48.2729 54.1604 48.7216 53.713L53.7934 48.6378C54.2447 48.1852 54.3034 47.4717 53.929 46.9526L49.366 40.6174C50.1396 39.2087 50.754 37.7191 51.2014 36.1722L58.9212 34.817C59.546 34.7074 60 34.1648 60 33.5322L60 26.3583C60.0013 25.7191 59.5382 25.1739 58.9069 25.0709L58.9069 25.0709ZM29.9996 39.1307C24.9566 39.1307 20.8684 35.0429 20.8684 30.0003C20.8684 24.9577 24.9566 20.8699 29.9996 20.8699C35.0427 20.8699 39.1309 24.9577 39.1309 30.0003C39.1309 35.0429 35.0427 39.1307 29.9996 39.1307L29.9996 39.1307Z" id="Shape-2" fill="#000000" fill-rule="evenodd" stroke="none" />
    <path d="M19 30.5C19 24.701 23.9249 20 30 20C36.0751 20 41 24.701 41 30.5C41 36.299 36.0751 41 30 41C23.9249 41 19 36.299 19 30.5Z" id="Oval" fill="#000000" fill-rule="evenodd" stroke="none" />
  </g>
</svg>