<?xml version="1.0" encoding="utf-8"?>
<svg  viewBox="0 0 60 60" version="1.1" xmlns:xlink="http://www.w3.org/1999/xlink" xmlns="http://www.w3.org/2000/svg">
  <path d="M34.9291 58.9067L36.1891 51.1975C37.7361 50.7461 39.223 50.1292 40.6305 49.3569L47.0439 53.8572C47.5618 54.2212 48.2673 54.1587 48.7161 53.7112L53.7861 48.6382C54.2374 48.1855 54.2961 47.4731 53.9218 46.9541L49.3813 40.6365C50.1665 39.2161 50.79 37.7158 51.2426 36.1597L58.92 34.8147C59.5435 34.7051 60 34.1638 60 33.5298L60 26.3552C60 25.7161 59.537 25.1709 58.9056 25.0679L51.27 23.8208C50.8199 22.2554 50.203 20.7527 49.4282 19.3374L53.9282 13.0369C54.3 12.5164 54.24 11.8079 53.79 11.3552L48.72 6.28491C48.2726 5.8374 47.5682 5.7749 47.0504 6.13867L40.7074 10.5728C39.2792 9.78345 37.7673 9.15479 36.1943 8.69678L34.9279 1.09058C34.8235 0.46167 34.2783 0 33.6417 0L26.4678 0C25.8352 0 25.2939 0.453857 25.1831 1.07617L23.8344 8.68237C22.2653 9.1377 20.7535 9.7666 19.3213 10.5583L13.0435 6.06958C12.5256 5.69922 11.8148 5.75781 11.3622 6.20801L6.28699 11.2798C5.8396 11.7271 5.77698 12.4329 6.14087 12.9507L10.59 19.3035C9.80603 20.7292 9.18396 22.2358 8.73267 23.7974L1.08789 25.0703C0.460449 25.1736 0 25.7175 0 26.3552L0 33.5298C0 34.1626 0.453857 34.7039 1.07605 34.8135L8.75867 36.1765C9.21912 37.7407 9.84521 39.2395 10.6305 40.6509L6.14221 47.0493C5.77563 47.5684 5.8396 48.2729 6.28699 48.7217L11.3622 53.7935C11.8148 54.2446 12.5283 54.3035 13.0474 53.929L19.3826 49.366C20.7913 50.1396 22.2809 50.7539 23.8279 51.2014L25.183 58.9211C25.2926 59.5461 25.8352 60 26.4678 60L33.6417 60C34.2809 60.0012 34.826 59.5381 34.9291 58.9067L34.9291 58.9067ZM20.8693 29.9998C20.8693 24.9565 24.9572 20.8684 29.9998 20.8684C35.0424 20.8684 39.1301 24.9565 39.1301 29.9998C39.1301 35.0427 35.0424 39.1309 29.9998 39.1309C24.9572 39.1309 20.8693 35.0427 20.8693 29.9998L20.8693 29.9998Z" id="Shape-2" fill="#000000" fill-rule="evenodd" stroke="none" />
</svg>