<?xml version="1.0" encoding="utf-8"?>
<svg width="80" height="73" viewBox="0 0 80 73" fill="none" xmlns="http://www.w3.org/2000/svg">
  <g>
    <g transform="translate(7 7)">
      <path d="M19 0C28.9425 0 37 8.05752 37 18L37 21C37 30.9425 28.9425 39 19 39L18 39C8.05752 39 0 30.9425 0 21L0 18C0 8.05752 8.05752 0 18 0L19 0Z" fill="#000000" />
      <path d="M19 0C28.9425 0 37 8.05752 37 18L37 21C37 30.9425 28.9425 39 19 39L18 39C8.05752 39 0 30.9425 0 21L0 18C0 8.05752 8.05752 0 18 0L19 0Z" fill="#000000" transform="translate(30 0)" />
      <path d="M1.24677 18.9429L16.4668 1.43424Q16.5281 1.36378 16.596 1.29967Q16.6638 1.23555 16.7376 1.17839Q16.8115 1.12124 16.8905 1.07159Q16.9696 1.02194 17.0531 0.980286Q17.1367 0.938629 17.2239 0.905362Q17.3112 0.872095 17.4012 0.847538Q17.4913 0.822982 17.5833 0.807372Q17.6754 0.791762 17.7685 0.78525Q17.8617 0.778738 17.955 0.781385Q18.0483 0.784033 18.1409 0.795815Q18.2335 0.807597 18.3245 0.8284Q18.4156 0.849203 18.5041 0.878826Q18.5926 0.90845 18.6778 0.946609Q18.763 0.984768 18.8441 1.03109Q18.9251 1.07742 19.0013 1.13147Q19.0774 1.18552 19.1479 1.24677L44.9584 23.6835Q45.0288 23.7448 45.0929 23.8126Q45.157 23.8805 45.2142 23.9543Q45.2714 24.0281 45.321 24.1072Q45.3707 24.1862 45.4123 24.2698Q45.454 24.3533 45.4872 24.4406Q45.5205 24.5278 45.5451 24.6179Q45.5696 24.708 45.5852 24.8Q45.6008 24.892 45.6073 24.9852Q45.6139 25.0783 45.6112 25.1716Q45.6086 25.265 45.5968 25.3576Q45.585 25.4502 45.5642 25.5412Q45.5434 25.6322 45.5138 25.7207Q45.4841 25.8093 45.446 25.8945Q45.4078 25.9797 45.3615 26.0607Q45.3152 26.1418 45.2611 26.2179Q45.2071 26.2941 45.1458 26.3645L29.9257 43.8732Q29.8645 43.9436 29.7966 44.0078Q29.7288 44.0719 29.655 44.129Q29.5811 44.1862 29.5021 44.2358Q29.423 44.2855 29.3395 44.3271Q29.2559 44.3688 29.1687 44.4021Q29.0814 44.4353 28.9914 44.4599Q28.9013 44.4844 28.8092 44.5001Q28.7172 44.5157 28.6241 44.5222Q28.5309 44.5287 28.4376 44.526Q28.3443 44.5234 28.2517 44.5116Q28.1591 44.4998 28.0681 44.479Q27.977 44.4582 27.8885 44.4286Q27.8 44.399 27.7148 44.3608Q27.6296 44.3227 27.5485 44.2763Q27.4674 44.23 27.3913 44.176Q27.3152 44.1219 27.2447 44.0607L1.43424 21.6239Q1.36378 21.5627 1.29967 21.4948Q1.23555 21.427 1.17839 21.3531Q1.12124 21.2793 1.07159 21.2003Q1.02194 21.1212 0.980287 21.0376Q0.93863 20.9541 0.905363 20.8669Q0.872096 20.7796 0.847539 20.6896Q0.822982 20.5995 0.807373 20.5074Q0.791763 20.4154 0.78525 20.3223Q0.778738 20.2291 0.781385 20.1358Q0.784033 20.0425 0.795815 19.9499Q0.807597 19.8573 0.8284 19.7662Q0.849203 19.6752 0.878826 19.5867Q0.90845 19.4982 0.946609 19.413Q0.984768 19.3277 1.03109 19.2467Q1.07742 19.1656 1.13147 19.0895Q1.18552 19.0134 1.24677 18.9429Z" fill="#000000" fill-rule="evenodd" transform="translate(4.324 12.406)" />
      <path d="M1.24677 26.6251L16.4668 44.1338Q16.5281 44.2042 16.596 44.2683Q16.6638 44.3325 16.7376 44.3896Q16.8115 44.4468 16.8905 44.4964Q16.9696 44.5461 17.0531 44.5877Q17.1367 44.6294 17.2239 44.6627Q17.3112 44.6959 17.4012 44.7205Q17.4913 44.745 17.5833 44.7606Q17.6754 44.7763 17.7685 44.7828Q17.8617 44.7893 17.955 44.7866Q18.0483 44.784 18.1409 44.7722Q18.2335 44.7604 18.3245 44.7396Q18.4156 44.7188 18.5041 44.6892Q18.5926 44.6596 18.6778 44.6214Q18.763 44.5833 18.8441 44.5369Q18.9251 44.4906 19.0013 44.4366Q19.0774 44.3825 19.1479 44.3213L45.2581 21.6239Q45.3286 21.5627 45.3927 21.4948Q45.4568 21.427 45.514 21.3531Q45.5711 21.2793 45.6208 21.2003Q45.6704 21.1212 45.7121 21.0376Q45.7537 20.9541 45.787 20.8669Q45.8203 20.7796 45.8448 20.6896Q45.8694 20.5995 45.885 20.5074Q45.9006 20.4154 45.9071 20.3223Q45.9136 20.2291 45.911 20.1358Q45.9083 20.0425 45.8966 19.9499Q45.8848 19.8573 45.864 19.7662Q45.8432 19.6752 45.8135 19.5867Q45.7839 19.4982 45.7458 19.4129Q45.7076 19.3277 45.6613 19.2467Q45.615 19.1656 45.5609 19.0895Q45.5069 19.0134 45.4456 18.9429L30.2255 1.43424Q30.1643 1.36378 30.0964 1.29967Q30.0285 1.23555 29.9547 1.17839Q29.8809 1.12124 29.8018 1.07159Q29.7228 1.02194 29.6392 0.980286Q29.5557 0.938629 29.4684 0.905362Q29.3812 0.872095 29.2911 0.847538Q29.2011 0.822982 29.109 0.807372Q29.017 0.791762 28.9238 0.78525Q28.8307 0.778737 28.7374 0.781385Q28.6441 0.784032 28.5514 0.795814Q28.4588 0.807596 28.3678 0.828399Q28.2768 0.849202 28.1883 0.878826Q28.0997 0.908449 28.0145 0.946608Q27.9293 0.984767 27.8483 1.03109Q27.7672 1.07742 27.6911 1.13147Q27.615 1.18552 27.5445 1.24677L1.43424 23.9441Q1.36378 24.0053 1.29967 24.0732Q1.23555 24.1411 1.17839 24.2149Q1.12124 24.2887 1.07159 24.3678Q1.02194 24.4468 0.980287 24.5304Q0.93863 24.6139 0.905363 24.7012Q0.872096 24.7884 0.847539 24.8785Q0.822983 24.9685 0.807373 25.0606Q0.791763 25.1526 0.785251 25.2458Q0.778738 25.3389 0.781386 25.4322Q0.784033 25.5255 0.795815 25.6181Q0.807597 25.7108 0.8284 25.8018Q0.849203 25.8928 0.878826 25.9813Q0.90845 26.0699 0.946609 26.1551Q0.984768 26.2403 1.0311 26.3213Q1.07742 26.4024 1.13147 26.4785Q1.18552 26.5546 1.24677 26.6251Z" fill="#000000" fill-rule="evenodd" transform="translate(15.766 12.881)" />
    </g>
  </g>
</svg>