<?xml version="1.0" encoding="utf-8"?>
<svg width="47.04004px" height="32.42383px" viewBox="0 0 47.04004 32.42383" version="1.1" xmlns:xlink="http://www.w3.org/1999/xlink" xmlns="http://www.w3.org/2000/svg">
  <path d="M6.89062 2.47955e-05C6.63497 0.00186253 6.38011 0.103415 6.19391 0.306275C2.34741 4.49283 0 10.0783 0 16.2121C0 22.346 2.34741 27.9314 6.19391 32.118C6.56631 32.5237 7.20977 32.5224 7.59883 32.1333L9.68516 30.047C10.0605 29.6716 10.0581 29.0743 9.70238 28.6803C6.71828 25.3777 4.9 21.0034 4.9 16.2121C4.9 11.4209 6.71828 7.04653 9.70238 3.74393C10.0581 3.34997 10.0605 2.75361 9.68516 2.37729L7.59883 0.290962C7.4043 0.0964327 7.14628 -0.00181198 6.89062 2.47955e-05L6.89062 2.47955e-05ZM40.1493 1.90735e-05C39.8934 -0.00157356 39.6356 0.096427 39.4411 0.290956L37.3529 2.3792C36.9775 2.75454 36.9799 3.34997 37.3356 3.74392C40.3207 7.04554 42.1399 11.4209 42.1399 16.2121C42.1399 21.0033 40.3216 25.3777 37.3376 28.6803C36.9818 29.0743 36.9794 29.6707 37.3548 30.047L39.4411 32.1333C39.8302 32.5224 40.4736 32.5227 40.846 32.118C44.6925 27.9314 47.0399 22.3459 47.0399 16.2121C47.0399 10.0783 44.6925 4.49283 40.846 0.306269C40.6598 0.103409 40.4052 0.00161171 40.1493 1.90735e-05L40.1493 1.90735e-05ZM33.9325 6.25291C33.6681 6.23981 33.398 6.33378 33.1937 6.53811L31.1055 8.62635C30.7536 8.97817 30.7152 9.54478 31.0346 9.926C32.4615 11.6292 33.32 13.8216 33.32 16.2118C33.32 18.602 32.4615 20.7934 31.0346 22.4956C30.7152 22.8769 30.7536 23.4435 31.1055 23.7953L33.1937 25.8854C33.6024 26.2941 34.2682 26.2575 34.6465 25.8204C36.873 23.2439 38.22 19.8848 38.22 16.2118C38.22 12.5387 36.873 9.1796 34.6465 6.60318C34.4573 6.38465 34.197 6.26602 33.9325 6.25291L33.9325 6.25291ZM13.1076 6.25537C12.8431 6.26848 12.5828 6.38711 12.3936 6.60565C10.1671 9.18109 8.82007 12.5393 8.82007 16.2123C8.82007 19.8854 10.1671 23.2445 12.3936 25.8209C12.7719 26.258 13.4377 26.2947 13.8464 25.886L15.9346 23.7978C16.2865 23.4459 16.3249 22.8793 16.0055 22.4981C14.5786 20.7949 13.7201 18.6025 13.7201 16.2123C13.7201 13.8221 14.5786 11.6307 16.0055 9.92846C16.3249 9.54724 16.2865 8.98063 15.9346 8.62881L13.8464 6.53865C13.6421 6.33433 13.372 6.24227 13.1076 6.25537L13.1076 6.25537ZM23.5199 10.3323C20.2722 10.3323 17.6399 12.9646 17.6399 16.2123C17.6399 19.46 20.2722 22.0923 23.5199 22.0923C26.7676 22.0923 29.3999 19.46 29.3999 16.2123C29.3999 12.9646 26.7676 10.3323 23.5199 10.3323L23.5199 10.3323Z" id="Shape" fill="#FFFFFF" fill-rule="evenodd" stroke="none" />
</svg>