<?xml version="1.0" encoding="utf-8"?>
<svg width="212.07645px" height="187.79181px" viewBox="0 0 212.07645 187.79181" version="1.1" xmlns:xlink="http://www.w3.org/1999/xlink" xmlns="http://www.w3.org/2000/svg">
  <defs>
    <radialGradient gradientUnits="objectBoundingBox" cx="37.721222%" cy="119.63641%" fx="37.721222%" fy="119.63641%" r="286.66943%" gradientTransform="translate(0.37721223,1.1963642),scale(1,0.4876234),rotate(-85.085724),translate(-0.37721223,-1.1963642)" id="gradient_1">
      <stop offset="20.672897%" stop-color="#FFFFFF" />
      <stop offset="36.16614%" stop-color="#78FAE6" />
      <stop offset="86.79509%" stop-color="#50B9EB" />
    </radialGradient>
  </defs>
  <g id="Group-3">
    <path d="M39.0618 80.9386C39.0618 47.8015 65.9247 20.9386 99.0618 20.9386C132.199 20.9386 159.062 47.8015 159.062 80.9386C159.062 114.076 132.199 140.939 99.0618 140.939C65.9247 140.939 39.0618 114.076 39.0618 80.9386Z" id="Oval" fill="#4572E3" fill-rule="evenodd" stroke="none" />
    <path d="M117.925 50.364C117.925 50.364 122.765 32.6388 122.765 32.6388C140.739 26.4386 157.003 24.8399 169.046 28.0894C181.09 31.339 188.243 39.2562 189.401 50.6184C190.558 61.9807 185.657 76.156 175.452 90.9554C165.248 105.755 150.309 120.355 132.941 132.502C115.574 144.649 96.7443 153.667 79.3601 158.163C61.9759 162.66 47.004 162.384 36.7564 157.379C26.5088 152.375 21.5555 142.919 22.6612 130.473C23.7669 118.026 30.8702 103.282 42.8743 88.5153C42.8743 88.5153 61.1512 90.0722 61.1512 90.0722C52.6206 100.566 47.5727 111.044 46.7869 119.889C46.0011 128.734 49.5212 135.453 56.8036 139.01C64.086 142.567 74.7256 142.762 87.0796 139.567C99.4336 136.372 112.815 129.964 125.157 121.331C137.499 112.699 148.115 102.323 155.367 91.8063C162.619 81.2891 166.102 71.2156 165.279 63.1411C164.456 55.0666 159.373 49.4403 150.815 47.131C142.256 44.8217 130.698 45.9578 117.925 50.364Z" id="Oval-3" fill="url(#gradient_1)" fill-rule="evenodd" stroke="none" />
    <path d="M98.5618 78.9386C98.5618 78.9386 63.4425 126.166 63.4425 126.166C55.1504 120.499 48.4846 112.917 44.0628 104.123C39.641 95.3287 37.6063 85.6067 38.1472 75.8579C38.6881 66.109 41.7871 56.6488 47.1571 48.3539C52.527 40.0589 59.9942 33.1976 68.8665 28.4058C77.7389 23.614 87.7294 21.0467 97.9122 20.9419C108.095 20.8371 118.141 23.1981 127.118 27.8061C136.096 32.4142 143.715 39.1202 149.27 47.3027C154.824 55.4852 158.134 64.8794 158.893 74.6149C158.893 74.6149 98.5618 78.9386 98.5618 78.9386Z" id="Oval-4" fill="#4572E3" fill-rule="evenodd" stroke="none" />
    <path d="M15.0618 35.9386C15.0618 24.3406 24.4638 14.9386 36.0618 14.9386C47.6598 14.9386 57.0618 24.3406 57.0618 35.9386C57.0618 47.5365 47.6598 56.9386 36.0618 56.9386C24.4638 56.9386 15.0618 47.5365 15.0618 35.9386Z" id="Oval-2" fill="#FF695A" fill-rule="evenodd" stroke="none" />
  </g>
</svg>